<?xml version="1.0" encoding="utf-8"?>
<!-- Generator: Adobe Illustrator 23.0.4, SVG Export Plug-In . SVG Version: 6.00 Build 0)  -->
<svg version="1.1" id="レイヤー_1" xmlns="http://www.w3.org/2000/svg" xmlns:xlink="http://www.w3.org/1999/xlink" x="0px"
	 y="0px" viewBox="0 0 240 160" style="enable-background:new 0 0 240 160;" xml:space="preserve">
<style type="text/css">
	.st0{opacity:0.75;fill:#FFFFFF;}
</style>
<path class="st0" d="M219.97,39.82c-5.68-1.31-9.17-6.99-9.39-9.83c-0.22-2.84-2.62-3.06-2.62-4.37c0-1.31-4.15-12.23-22.5-11.36
	c-18.34,0.87-22.93,13.98-25.99,19.66c-14.33,26.61-46.96,24.02-72.29,23.81c-25.34-0.22-40.25,4.62-43.46,6.33
	c-1.94,1.03-3.68,2.12-5.25,3.24c-6.86,0.02-17.39-0.6-18.55-4.55c-1.74-5.9,3.72-7.43,5.46-8.3c1.75-0.88,2.84-3.5-2.4-3.28
	c-5.24,0.22-12.01,6.77-8.52,14.85c2.25,5.21,10.13,7.24,16.79,7.97c-8.97,11.07-6.41,23.12-6.74,26.1
	c-0.44,3.93-6.11,5.68-11.57,8.52c-5.46,2.84-1.97,8.74-0.21,11.57c1.74,2.84,2.83,20.53,5.46,21.84
	c2.62,1.31,13.98,0.87,16.16,0.44c2.18-0.44,1.96-2.18,1.31-3.71c-0.66-1.53-1.96-0.87-3.71-1.31c-1.74-0.44-5.68-3.28-6.11-5.68
	c-0.44-2.4,0.44-8.73,2.18-10.7c1.74-1.97,3.93-2.84,3.93-2.84c5.24,0.22,9.83-1.53,13.32-3.28c3.49-1.75,8.74-7.64,10.48-8.08
	c1.75-0.44-0.44,4.81-1.74,7.64c-1.32,2.84-2.84,5.46-3.06,9.17c-0.21,3.71,2.4,3.93,5.46,5.02c3.06,1.09,11.57,8.3,11.57,8.3
	s0,0,2.41,1.53c2.4,1.53,10.92-0.22,17.25-0.22c6.33,0,5.68-2.4,4.59-4.15c-1.09-1.75-2.4-0.66-3.94-1.09
	c-1.53-0.44-3.49-1.31-9.83-4.15c-6.33-2.84-7.64-8.08-8.3-10.05c-0.65-1.97,1.97-4.59,1.97-4.59c20.53,2.18,44.55-5.02,45.86-5.02
	c1.32,0,8.52,0.44,10.92,2.18c2.41,1.75,0.22,4.8,0,6.33c-0.21,1.53-3.71,4.37-6.55,5.46c-2.83,1.09-1.74,4.59-1.74,4.59
	c-3.49,1.75-1.96,5.9-1.96,5.9c-1.75,3.71,2.4,4.59,2.4,4.59s0.22,3.49,2.18,3.93c1.97,0.44,1.31-2.4,1.97-2.84
	c0.66-0.44,0.66,1.74,2.62,1.53c1.96-0.22,2.18-4.15,2.4-5.9c0.22-1.75,1.09-2.62,2.19-3.71c1.09-1.09,2.83-6.99,4.36-5.68
	c1.53,1.31,3.93,8.95,5.24,11.57c1.31,2.62,0.66,5.02,1.09,6.99c0.44,1.96,5.02,1.53,13.76,1.53c8.74,0,9.39-1.09,9.39-1.09
	c0-1.53-0.21-3.06-2.62-4.15c-0.65-1.31-2.18-2.4-4.81-2.84c-2.62-0.44-2.4-1.75-4.36-4.81c-1.97-3.06-0.44-9.39-1.09-12.45
	c-0.66-3.06,0.87-14.41,0.87-14.41c8.52-4.15,10.7-14.63,12.88-20.09c2.19-5.46,12.02-18.35,12.02-18.35s2.18,2.4,8.08,2.4
	c10.04,0,7.21-7.86,7.64-8.73c0.44-0.87,2.84,0,2.84,0c5.68,5.46,10.26-0.87,10.26-0.87c11.13,3.05,14.41-4.81,14.41-4.81
	c2.84-0.87,6.12-5.24,7.43-9.17C231.11,42.44,225.65,41.13,219.97,39.82z"/>
</svg>
