<svg version="1.1" id="レイヤー_1" xmlns="http://www.w3.org/2000/svg" x="0" y="0" viewBox="0 0 240 160" xml:space="preserve"><path d="M219.97 39.82c-5.68-1.31-9.17-6.99-9.39-9.83-.22-2.84-2.62-3.06-2.62-4.37s-4.15-12.23-22.5-11.36c-18.34.87-22.93 13.98-25.99 19.66-14.33 26.61-46.96 24.02-72.29 23.81-25.34-.22-40.25 4.62-43.46 6.33a46.832 46.832 0 0 0-5.25 3.24c-6.86.02-17.39-.6-18.55-4.55-1.74-5.9 3.72-7.43 5.46-8.3 1.75-.88 2.84-3.5-2.4-3.28-5.24.22-12.01 6.77-8.52 14.85 2.25 5.21 10.13 7.24 16.79 7.97-8.97 11.07-6.41 23.12-6.74 26.1-.44 3.93-6.11 5.68-11.57 8.52s-1.97 8.74-.21 11.57c1.74 2.84 2.83 20.53 5.46 21.84 2.62 1.31 13.98.87 16.16.44 2.18-.44 1.96-2.18 1.31-3.71-.66-1.53-1.96-.87-3.71-1.31-1.74-.44-5.68-3.28-6.11-5.68-.44-2.4.44-8.73 2.18-10.7 1.74-1.97 3.93-2.84 3.93-2.84 5.24.22 9.83-1.53 13.32-3.28 3.49-1.75 8.74-7.64 10.48-8.08 1.75-.44-.44 4.81-1.74 7.64-1.32 2.84-2.84 5.46-3.06 9.17-.21 3.71 2.4 3.93 5.46 5.02 3.06 1.09 11.57 8.3 11.57 8.3l2.41 1.53c2.4 1.53 10.92-.22 17.25-.22s5.68-2.4 4.59-4.15c-1.09-1.75-2.4-.66-3.94-1.09-1.53-.44-3.49-1.31-9.83-4.15-6.33-2.84-7.64-8.08-8.3-10.05-.65-1.97 1.97-4.59 1.97-4.59 20.53 2.18 44.55-5.02 45.86-5.02 1.32 0 8.52.44 10.92 2.18 2.41 1.75.22 4.8 0 6.33-.21 1.53-3.71 4.37-6.55 5.46-2.83 1.09-1.74 4.59-1.74 4.59-3.49 1.75-1.96 5.9-1.96 5.9-1.75 3.71 2.4 4.59 2.4 4.59s.22 3.49 2.18 3.93c1.97.44 1.31-2.4 1.97-2.84.66-.44.66 1.74 2.62 1.53 1.96-.22 2.18-4.15 2.4-5.9.22-1.75 1.09-2.62 2.19-3.71 1.09-1.09 2.83-6.99 4.36-5.68 1.53 1.31 3.93 8.95 5.24 11.57 1.31 2.62.66 5.02 1.09 6.99.44 1.96 5.02 1.53 13.76 1.53s9.39-1.09 9.39-1.09c0-1.53-.21-3.06-2.62-4.15-.65-1.31-2.18-2.4-4.81-2.84-2.62-.44-2.4-1.75-4.36-4.81-1.97-3.06-.44-9.39-1.09-12.45-.66-3.06.87-14.41.87-14.41 8.52-4.15 10.7-14.63 12.88-20.09 2.19-5.46 12.02-18.35 12.02-18.35s2.18 2.4 8.08 2.4c10.04 0 7.21-7.86 7.64-8.73.44-.87 2.84 0 2.84 0 5.68 5.46 10.26-.87 10.26-.87 11.13 3.05 14.41-4.81 14.41-4.81 2.84-.87 6.12-5.24 7.43-9.17 1.3-3.91-4.16-5.22-9.84-6.53z" opacity=".75" fill="#fff"/></svg>